<?xml version="1.0" encoding="utf-8"?>
<!-- Generator: Adobe Illustrator 27.0.1, SVG Export Plug-In . SVG Version: 6.00 Build 0)  -->
<svg version="1.1" id="keywordrocket_x5F_logo_00000025403527416214289280000018050792337804086939_"
	 xmlns="http://www.w3.org/2000/svg" xmlns:xlink="http://www.w3.org/1999/xlink" x="0px" y="0px" viewBox="0 0 1917 327"
	 style="enable-background:new 0 0 1917 327;" xml:space="preserve">
<style type="text/css">
	.st0{enable-background:new    ;}
	.st1{fill:#FFFFFF;}
	.st2{fill:#FF9F6A;}
	.st3{fill:#E94351;}
	.st4{fill:#EB4350;}
	.st5{fill:#EA4451;}
</style>
<g id="kwrocket_x5F_icon_00000064341589364299556810000011798931057044335512_" class="st0">
	<g id="Ellipse_3">
		<g>
			
				<ellipse transform="matrix(1 -1.168252e-03 1.168252e-03 1 -0.2075 0.1859)" class="st1" cx="159" cy="177.7" rx="125" ry="125"/>
		</g>
	</g>
	<g id="Shape_2941_1">
		<g>
			<path class="st2" d="M95.5,191.1c-9.2,5.6-18.2,8.7-26.7,8V91.4c-21.6,22.4-34.9,52.9-34.9,86.4c0,2.2,0.1,4.4,0.2,6.5
				C51.6,211.4,73,207.4,95.5,191.1z M68.8,264.2v-27.1c-9.5-0.8-18-4.6-25.2-11.1C49.6,240.4,58.2,253.3,68.8,264.2z M146.7,142
				l70.4-74.4c-17.4-9.2-37.2-14.4-58.3-14.4c-14.5,0-28.5,2.5-41.4,7v112C127.2,162.8,137,152.2,146.7,142z M246.8,89.3l-71.7,74.2
				l75.4,99c20.6-22.2,33.3-52,33.3-84.6C283.8,143.2,269.6,111.9,246.8,89.3z M130.8,188.5c35-36.4,70.3-72.3,105.4-108.5
				c-1.7-1.4-3.5-2.7-5.3-3.9h-2.8l-71.4,75.5c-12.1,12.8-24.2,26-37.3,37.8c-17.1,15.5-40.7,34-70.3,24.9
				c18.2,14.6,33.3,8.5,52.5-2.7C112.1,204.9,121.8,196.9,130.8,188.5z M88.2,234.8c6,0,15-2.7,21.9-6.5v0l7.4-4.6l-0.1,71.7
				c12.9,4.5,26.8,7,41.3,7c16.6,0,32.4-3.2,46.9-9.1l-68.9-91.1C119.2,219.9,102.9,230.7,88.2,234.8z"/>
		</g>
	</g>
	<g id="Shape_2941_1_00000163758785486241412020000014935486413223336073_">
		<g>
			<path class="st3" d="M231,76.1h-2.8l-71.4,75.5c-12.1,12.8-24.2,26-37.3,37.8c-17.1,15.5-40.7,34-70.3,24.9
				c18.2,14.6,33.3,8.5,52.5-2.7c10.3-6.7,20-14.7,29-23.1c35-36.4,70.3-72.3,105.4-108.5C234.5,78.6,232.8,77.3,231,76.1z"/>
		</g>
	</g>
	<g id="Shape_77">
		<g>
			<path class="st4" d="M223.7,77.1c-5.7,7.3-11,17.6-14.6,25.5c6.9-3.7,17.4-10.3,24.8-17.2C253.1,67.8,239.1,57.2,223.7,77.1z"/>
		</g>
	</g>
	<g id="Shape_78">
		<g>
			<path class="st4" d="M268.4,34.7c0-0.6-0.1-1.2-0.3-1.8c-0.3-0.6-0.6-1-1.1-1.4c-0.5-0.4-1-0.6-1.6-0.7c-0.6-0.1-1.2-0.1-1.8,0.1
				c-6.6,1.9-12.9,4.9-18.7,8.8c-5.5,3.7-10.5,8.4-14.9,13.8c-0.5-0.1-1-0.2-1.5-0.1c-1.5,0.2-3,0.4-4.4,0.8
				c-1.4,0.3-2.9,0.8-4.3,1.3c-0.3,0.1-0.6,0.3-0.9,0.5l0,0c-0.3,0.2-0.5,0.4-0.7,0.7l0,0l-4.2,5.3c-0.4,0.5-0.7,1.1-0.8,1.8
				c-0.1,0.7,0,1.3,0.2,1.9c0.2,0.6,0.6,1.2,1.1,1.6c0.5,0.4,1.1,0.7,1.8,0.8l0,0c1,0.2,2,0.4,3,0.7c0.9,0.3,1.9,0.6,2.9,1l0,0
				c0.1,0,0.2,0,0.2,0.1c1.1,1.6,2.3,3.1,3.6,4.5c1.3,1.4,2.8,2.7,4.3,3.9c1.5,1.2,3.2,2.3,4.8,3.2c1.7,1,3.5,1.8,5.3,2.4
				c0,0.1,0.1,0.2,0.1,0.2c0.6,0.9,1.2,1.8,1.6,2.6c0.5,0.9,1,1.8,1.4,2.8c0.3,0.6,0.7,1.1,1.2,1.5l0,0c0.5,0.4,1.2,0.6,1.8,0.7
				c0.7,0.1,1.3,0,1.9-0.3c0.6-0.3,1.1-0.7,1.5-1.2l0,0l4.2-5.3l0,0c0.2-0.3,0.4-0.6,0.5-0.9l0,0c0.1-0.3,0.2-0.7,0.3-1
				c0.2-1.5,0.2-3,0.2-4.5c0-1.5-0.1-3-0.3-4.5c-0.1-0.5-0.2-1-0.5-1.5c4.3-5.5,7.5-11.5,9.8-17.8C266.8,48.4,268.1,41.6,268.4,34.7
				z"/>
		</g>
	</g>
</g>
<g id="rocket">
	<g>
		<path class="st5" d="M1268.1,146.8v-22.1h-39.5v119h39.5v-49.3c0-23.6,20-30.7,35.7-28.3v-43.8
			C1287.8,122.3,1272.9,130.6,1268.1,146.8z M1371.2,121.3c-35.2,0-63.6,27.4-63.6,62.8s28.6,62.8,63.6,62.8
			c35.5,0,63.6-27.4,63.6-62.8S1406.6,121.3,1371.2,121.3z M1371.2,208.9c-13.6,0-23.8-10-23.8-24.8c0-14.8,10.2-24.8,23.8-24.8
			c13.8,0,24,10,24,24.8C1395.2,198.9,1385,208.9,1371.2,208.9z M1503.6,159.9c9.3,0,16.9,4.8,20.7,11.7l33.8-19.5
			c-10.2-18.6-30.7-30.7-54.3-30.7c-36.2,0-63.3,27.4-63.3,62.8s27.1,62.8,63.3,62.8c23.6,0,44-12.1,54.3-30.9l-33.8-19.5
			c-3.6,7.1-11.4,11.9-20.7,11.9c-13.3,0-23.3-10-23.3-24.3S1490.3,159.9,1503.6,159.9z M1683.1,124.7h-45.7l-30.7,49.7V77h-39.5
			v166.6h39.5V193l33.8,50.7h44.3l-41.7-59.5L1683.1,124.7z M1742.8,121.3c-37.1,0-63.3,27.4-63.3,63.1c0,35.2,25.5,62.6,66.6,62.6
			c21.2,0,39.3-7.1,51.2-22.1l-28.6-20c-5.7,5.5-13.1,8.3-21.7,8.3c-11.4,0-21.9-3.1-26.7-14.5h82.1c1.2-5,1.7-9.8,1.7-14.8
			C1804.2,148.2,1778.5,121.3,1742.8,121.3z M1719.9,171.3c3.3-10.9,11.9-16.7,23.3-16.7c9.5,0,18.8,4.3,22.4,16.7H1719.9z
			 M1889.4,162.5v-37.8h-24.8V91.3l-39.5,11.9v21.4h-17.9v37.8h17.9V198c0,36.7,15.7,51.7,64.3,45.7V208c-15.9,1-24.8,0.2-24.8-10.9
			v-34.5H1889.4z"/>
	</g>
</g>
<g id="keyword">
	<g>
		<path class="st2" d="M432.7,124.7H387l-30.7,49.7V77h-39.5v166.6h39.5V193l33.8,50.7h44.3l-41.7-59.5L432.7,124.7z M492.3,121.3
			c-37.1,0-63.3,27.4-63.3,63.1c0,35.2,25.5,62.6,66.6,62.6c21.2,0,39.3-7.1,51.2-22.1l-28.6-20c-5.7,5.5-13.1,8.3-21.7,8.3
			c-11.4,0-21.9-3.1-26.7-14.5h82.1c1.2-5,1.7-9.8,1.7-14.8C553.7,148.2,528,121.3,492.3,121.3z M469.5,171.3
			c3.3-10.9,11.9-16.7,23.3-16.7c9.5,0,18.8,4.3,22.4,16.7H469.5z M615.9,193.7l-24-69h-44.3l47.6,115.2
			c-5.2,10.7-12.6,14.3-29.5,14.3v37.1c36.7,1.7,59.3-13.3,71.9-49.5l40.7-117.1h-43.8L615.9,193.7z M822.5,124.7l-15.7,64.7
			l-17.9-64.7h-33.3l-17.9,64.7L722,124.7h-41.9l36.4,119h38.6l17.1-60.5l17.1,60.5h38.6l36.4-119H822.5z M925.9,121.3
			c-35.2,0-63.6,27.4-63.6,62.8s28.6,62.8,63.6,62.8c35.5,0,63.6-27.4,63.6-62.8S961.3,121.3,925.9,121.3z M925.9,208.9
			c-13.6,0-23.8-10-23.8-24.8c0-14.8,10.2-24.8,23.8-24.8c13.8,0,24,10,24,24.8C949.9,198.9,939.7,208.9,925.9,208.9z M1041.1,146.8
			v-22.1h-39.5v119h39.5v-49.3c0-23.6,20-30.7,35.7-28.3v-43.8C1060.8,122.3,1045.8,130.6,1041.1,146.8z M1170.5,77v58.6
			c-7.6-9-18.6-14.3-33.8-14.3c-31.9,0-55.9,27.1-55.9,62.8s24,62.8,55.9,62.8c15.2,0,26.2-5.2,33.8-14.3v10.9h39.5V77H1170.5z
			 M1145.5,210.1c-14.8,0-25-10.5-25-25.9s10.2-25.9,25-25.9c14.8,0,25,10.5,25,25.9S1160.3,210.1,1145.5,210.1z"/>
	</g>
</g>
</svg>
